<svg xmlns="http://www.w3.org/2000/svg" viewBox="0 0 763 526" width="763" height="526" role="img" aria-label="Engineering Skill Radar" font-family="ui-sans-serif,-apple-system,Segoe UI,Helvetica,Arial,sans-serif"><text x="381.5" y="25" text-anchor="middle" font-size="15" font-weight="700" fill="#1f2328">Engineering Skill Radar</text><g transform="translate(365.1,289.0)"><polygon points="0.0,-212.0 165.7,-132.2 206.7,47.2 92.0,191.0 -92.0,191.0 -206.7,47.2 -165.7,-132.2" fill="none" stroke="#d0d7de" stroke-width="1" opacity="0.85"/><polygon points="0.0,-159.0 124.3,-99.1 155.0,35.4 69.0,143.3 -69.0,143.3 -155.0,35.4 -124.3,-99.1" fill="none" stroke="#d0d7de" stroke-width="1" opacity="0.72"/><polygon points="0.0,-106.0 82.9,-66.1 103.3,23.6 46.0,95.5 -46.0,95.5 -103.3,23.6 -82.9,-66.1" fill="none" stroke="#d0d7de" stroke-width="1" opacity="0.60"/><polygon points="0.0,-53.0 41.4,-33.0 51.7,11.8 23.0,47.8 -23.0,47.8 -51.7,11.8 -41.4,-33.0" fill="none" stroke="#d0d7de" stroke-width="1" opacity="0.47"/><line x1="0" y1="0" x2="0.0" y2="-212.0" stroke="#e6eaef" stroke-width="1"/><line x1="0" y1="0" x2="165.7" y2="-132.2" stroke="#e6eaef" stroke-width="1"/><line x1="0" y1="0" x2="206.7" y2="47.2" stroke="#e6eaef" stroke-width="1"/><line x1="0" y1="0" x2="92.0" y2="191.0" stroke="#e6eaef" stroke-width="1"/><line x1="0" y1="0" x2="-92.0" y2="191.0" stroke="#e6eaef" stroke-width="1"/><line x1="0" y1="0" x2="-206.7" y2="47.2" stroke="#e6eaef" stroke-width="1"/><line x1="0" y1="0" x2="-165.7" y2="-132.2" stroke="#e6eaef" stroke-width="1"/><g><animateTransform attributeName="transform" type="scale" values="0.04;1" dur="1.1s" calcMode="spline" keyTimes="0;1" keySplines="0.22 1 0.36 1" fill="freeze"/><polygon points="0.0,-199.3 152.5,-121.6 192.2,43.9 81.9,170.0 -83.7,173.8 -179.8,41.0 -140.9,-112.4" fill="#2da44e" fill-opacity="0.22" stroke="#1a7f37" stroke-width="2.5" stroke-linejoin="round"/><circle cx="0.0" cy="-199.3" r="3.6" fill="#116329" stroke="#1a7f37" stroke-width="1.2"/><circle cx="152.5" cy="-121.6" r="3.6" fill="#116329" stroke="#1a7f37" stroke-width="1.2"/><circle cx="192.2" cy="43.9" r="3.6" fill="#116329" stroke="#1a7f37" stroke-width="1.2"/><circle cx="81.9" cy="170.0" r="3.6" fill="#116329" stroke="#1a7f37" stroke-width="1.2"/><circle cx="-83.7" cy="173.8" r="3.6" fill="#116329" stroke="#1a7f37" stroke-width="1.2"/><circle cx="-179.8" cy="41.0" r="3.6" fill="#116329" stroke="#1a7f37" stroke-width="1.2"/><circle cx="-140.9" cy="-112.4" r="3.6" fill="#116329" stroke="#1a7f37" stroke-width="1.2"/></g><text x="0.0" y="-237.0" text-anchor="middle" font-size="13" font-weight="600" fill="#1f2328">Python Engineering</text><text x="181.4" y="-149.6" text-anchor="start" font-size="13" font-weight="600" fill="#1f2328">Full-Stack Development</text><text x="226.2" y="55.6" text-anchor="start" font-size="13" font-weight="600" fill="#1f2328">Backend Architecture</text><text x="100.7" y="223.0" text-anchor="start" font-size="13" font-weight="600" fill="#1f2328">AI Engineering</text><text x="-100.7" y="223.0" text-anchor="end" font-size="13" font-weight="600" fill="#1f2328">System &amp; API Design</text><text x="-226.2" y="55.6" text-anchor="end" font-size="13" font-weight="600" fill="#1f2328">Realtime Systems</text><text x="-181.4" y="-149.6" text-anchor="end" font-size="13" font-weight="600" fill="#1f2328">3D &amp; IoT Engineering</text></g></svg>